<svg width="18" height="14" viewBox="0 0 18 14" fill="none" xmlns="http://www.w3.org/2000/svg">
  <path d="M8.99978 10.75C7.02452 10.75 5.42556 9.22114 5.27843 7.28364L2.54666 5.17244C2.18754 5.62296 1.85707 6.09927 1.59041 6.6201C1.53083 6.73794 1.4998 6.86813 1.4998 7.00018C1.4998 7.13222 1.53083 7.26242 1.59041 7.38026C3.00265 10.1357 5.79848 12 8.99978 12C9.70056 12 10.3766 11.8959 11.0282 11.7277L9.67686 10.6821C9.45369 10.7252 9.22707 10.7479 8.99978 10.75ZM17.1722 12.2631L14.2933 10.0381C15.1678 9.30107 15.887 8.39752 16.4092 7.38C16.4687 7.26215 16.4998 7.13196 16.4998 6.99992C16.4998 6.86787 16.4687 6.73768 16.4092 6.61984C14.9969 3.86437 12.2011 2.00005 8.99978 2.00005C7.65903 2.00167 6.34005 2.33921 5.16332 2.98182L1.8503 0.421142C1.8071 0.387524 1.7577 0.362749 1.70491 0.348232C1.65213 0.333715 1.59701 0.32974 1.54269 0.336536C1.48837 0.343332 1.43593 0.360765 1.38835 0.387838C1.34077 0.414911 1.29899 0.451094 1.26541 0.494319L0.754208 1.15239C0.686395 1.23963 0.656009 1.35023 0.669732 1.45986C0.683454 1.5695 0.740163 1.6692 0.827385 1.73703L16.1493 13.579C16.1925 13.6126 16.2419 13.6373 16.2946 13.6519C16.3474 13.6664 16.4026 13.6704 16.4569 13.6636C16.5112 13.6568 16.5636 13.6393 16.6112 13.6123C16.6588 13.5852 16.7006 13.549 16.7342 13.5058L17.2456 12.8477C17.3134 12.7604 17.3437 12.6498 17.33 12.5402C17.3162 12.4305 17.2594 12.3309 17.1722 12.2631ZM12.3878 8.56515L11.3644 7.77401C11.4506 7.52491 11.4963 7.26361 11.4998 7.00005C11.5049 6.61418 11.4194 6.2325 11.2502 5.88566C11.081 5.53882 10.8328 5.2365 10.5256 5.00297C10.2184 4.76944 9.86067 4.61122 9.48121 4.54102C9.10174 4.47082 8.7111 4.49059 8.34067 4.59875C8.4977 4.81153 8.58265 5.06892 8.58311 5.33338C8.57923 5.42138 8.56578 5.5087 8.54301 5.5938L6.62608 4.11229C7.29196 3.55583 8.132 3.25069 8.99978 3.25005C9.49231 3.24977 9.98007 3.34658 10.4352 3.53494C10.8903 3.7233 11.3038 3.99951 11.652 4.34779C12.0003 4.69606 12.2765 5.10957 12.4649 5.56466C12.6532 6.01976 12.7501 6.50751 12.7498 7.00005C12.7498 7.56333 12.612 8.08833 12.3878 8.56541V8.56515Z" fill="#9FA2B4"/>
</svg>
